<svg width="11" height="10" viewBox="0 0 11 10" fill="none" xmlns="http://www.w3.org/2000/svg">
<path d="M9.87075 0.289386C9.8045 0.197689 9.72569 0.124907 9.63886 0.0752394C9.55203 0.0255714 9.45889 0 9.36482 0C9.27076 0 9.17762 0.0255714 9.09079 0.0752394C9.00395 0.124907 8.92515 0.197689 8.8589 0.289386L3.55028 7.58766L1.31995 4.51573C1.25117 4.42451 1.16998 4.35279 1.08101 4.30465C0.992044 4.25651 0.897042 4.23291 0.801429 4.23518C0.705817 4.23745 0.611466 4.26555 0.523765 4.31789C0.436063 4.37022 0.356728 4.44576 0.29029 4.54019C0.223851 4.63462 0.17161 4.74609 0.136549 4.86824C0.101488 4.99039 0.0842931 5.12082 0.0859473 5.25209C0.0876015 5.38336 0.108072 5.5129 0.14619 5.63331C0.184307 5.75372 0.239326 5.86265 0.308104 5.95386L3.04436 9.71062C3.1106 9.80231 3.18941 9.87509 3.27625 9.92476C3.36308 9.97443 3.45621 10 3.55028 10C3.64435 10 3.73749 9.97443 3.82432 9.92476C3.91115 9.87509 3.98996 9.80231 4.0562 9.71062L9.87075 1.72752C9.94307 1.63591 10.0008 1.52472 10.0403 1.40096C10.0798 1.2772 10.1001 1.14356 10.1001 1.00845C10.1001 0.873344 10.0798 0.7397 10.0403 0.615943C10.0008 0.492186 9.94307 0.380998 9.87075 0.289386Z" fill="white"/>
</svg>
