<svg width="21" height="20" viewBox="0 0 21 20" fill="none" xmlns="http://www.w3.org/2000/svg">
<path d="M8.6716 16C8.9667 16 9.24972 15.8946 9.45839 15.7071C9.66707 15.5196 9.7843 15.2652 9.7843 15V9C9.7843 8.73478 9.66707 8.48043 9.45839 8.29289C9.24972 8.10536 8.9667 8 8.6716 8C8.37649 8 8.09347 8.10536 7.8848 8.29289C7.67613 8.48043 7.55889 8.73478 7.55889 9V15C7.55889 15.2652 7.67613 15.5196 7.8848 15.7071C8.09347 15.8946 8.37649 16 8.6716 16ZM19.7986 4H15.3478V3C15.3478 2.20435 14.9961 1.44129 14.3701 0.87868C13.7441 0.316071 12.895 0 12.0097 0H9.7843C8.89898 0 8.04992 0.316071 7.4239 0.87868C6.79789 1.44129 6.44619 2.20435 6.44619 3V4H1.99539C1.70028 4 1.41726 4.10536 1.20859 4.29289C0.999921 4.48043 0.88269 4.73478 0.88269 5C0.88269 5.26522 0.999921 5.51957 1.20859 5.70711C1.41726 5.89464 1.70028 6 1.99539 6H3.10809V17C3.10809 17.7956 3.45978 18.5587 4.0858 19.1213C4.71181 19.6839 5.56087 20 6.44619 20H15.3478C16.2331 20 17.0822 19.6839 17.7082 19.1213C18.3342 18.5587 18.6859 17.7956 18.6859 17V6H19.7986C20.0937 6 20.3767 5.89464 20.5854 5.70711C20.7941 5.51957 20.9113 5.26522 20.9113 5C20.9113 4.73478 20.7941 4.48043 20.5854 4.29289C20.3767 4.10536 20.0937 4 19.7986 4ZM8.6716 3C8.6716 2.73478 8.78883 2.48043 8.9975 2.29289C9.20617 2.10536 9.48919 2 9.7843 2H12.0097C12.3048 2 12.5878 2.10536 12.7965 2.29289C13.0052 2.48043 13.1224 2.73478 13.1224 3V4H8.6716V3ZM16.4605 17C16.4605 17.2652 16.3433 17.5196 16.1346 17.7071C15.9259 17.8946 15.6429 18 15.3478 18H6.44619C6.15109 18 5.86807 17.8946 5.6594 17.7071C5.45072 17.5196 5.33349 17.2652 5.33349 17V6H16.4605V17ZM13.1224 16C13.4175 16 13.7005 15.8946 13.9092 15.7071C14.1179 15.5196 14.2351 15.2652 14.2351 15V9C14.2351 8.73478 14.1179 8.48043 13.9092 8.29289C13.7005 8.10536 13.4175 8 13.1224 8C12.8273 8 12.5443 8.10536 12.3356 8.29289C12.1269 8.48043 12.0097 8.73478 12.0097 9V15C12.0097 15.2652 12.1269 15.5196 12.3356 15.7071C12.5443 15.8946 12.8273 16 13.1224 16Z" fill="white"/>
</svg>
