<svg width="11" height="10" viewBox="0 0 11 10" fill="none" xmlns="http://www.w3.org/2000/svg">
<path d="M9.47425 4.375H5.71889V0.625C5.71889 0.45924 5.65294 0.300269 5.53557 0.183058C5.41819 0.0658481 5.25899 0 5.09299 0C4.92699 0 4.7678 0.0658481 4.65042 0.183058C4.53304 0.300269 4.4671 0.45924 4.4671 0.625V4.375H0.711732C0.545735 4.375 0.386536 4.44085 0.269159 4.55806C0.151781 4.67527 0.0858383 4.83424 0.0858383 5C0.0858383 5.16576 0.151781 5.32473 0.269159 5.44194C0.386536 5.55915 0.545735 5.625 0.711732 5.625H4.4671V9.375C4.4671 9.54076 4.53304 9.69973 4.65042 9.81694C4.7678 9.93415 4.92699 10 5.09299 10C5.25899 10 5.41819 9.93415 5.53557 9.81694C5.65294 9.69973 5.71889 9.54076 5.71889 9.375V5.625H9.47425C9.64025 5.625 9.79945 5.55915 9.91682 5.44194C10.0342 5.32473 10.1001 5.16576 10.1001 5C10.1001 4.83424 10.0342 4.67527 9.91682 4.55806C9.79945 4.44085 9.64025 4.375 9.47425 4.375Z" fill="white"/>
</svg>
